<?xml version="1.0" encoding="UTF-8"?>
<svg id="a" data-name="Layer 3" xmlns="http://www.w3.org/2000/svg" width="228.824mm" height="48.319mm" viewBox="0 0 648.636 136.968">
  <path d="M96.404,18.738c-2.885-4.125-6.673-7.572-11.364-10.343-4.691-2.771-9.807-4.859-15.346-6.277-5.539-1.409-10.967-2.118-16.278-2.118-4.978,0-9.951,.51-14.924,1.527-4.973,1.017-9.58,2.261-13.819,3.729-4.239,1.472-7.943,2.885-11.107,4.239,0,.793,.392,1.696,1.185,2.712,.789,1.021,1.721,1.924,2.801,2.717,1.071,.789,1.89,1.185,2.455,1.185,.907,0,2.316-.536,4.239-1.611,1.924-1.071,4.412-2.316,7.462-3.729,3.054-1.413,6.724-2.573,11.022-3.476-4.298,9.495-8.167,18.594-11.613,27.301-3.451,8.706-6.728,17.379-9.837,26.027-3.109,8.652-6.188,17.637-9.242,26.963-3.054,9.327-6.332,19.362-9.837,30.102-.451,1.468-.932,3.05-1.438,4.746-.51,1.696-.764,3.278-.764,4.75,0,2.826,1.497,5.142,4.492,6.952,2.995,1.81,6.188,2.712,9.58,2.712,2.603-9.044,5.429-19.13,8.479-30.266,3.054-11.136,6.163-22.302,9.327-33.493h1.021c2.033,0,5.087-.169,9.154-.506,4.071-.342,8.677-.962,13.823-1.869,5.142-.903,10.314-2.257,15.515-4.066,5.197-1.81,10.031-4.185,14.498-7.125,4.467-2.936,8.057-6.555,10.769-10.854,2.712-4.294,4.071-9.436,4.071-15.43,0-5.539-1.443-10.369-4.324-14.498Zm-14.414,27.681c-3.113,4.522-7.239,8.28-12.381,11.275-5.146,2.995-10.883,5.34-17.211,7.036-6.336,1.696-12.663,2.771-18.995,3.223,3.392-11.756,6.952-23.032,10.685-33.83,3.729-10.795,7.631-20.151,11.701-28.064,5.197,.114,10.145,1.076,14.836,2.881,4.691,1.81,8.534,4.467,11.533,7.972,2.995,3.505,4.492,8.082,4.492,13.735,0,5.994-1.557,11.25-4.661,15.772Z" fill="#231f20"/>
  <path d="M129.13,35.733c-1.413-.903-3.134-1.358-5.172-1.358-3.164,0-6.218,.962-9.158,2.885-2.94,1.924-4.408,4.239-4.408,6.952,0,2.261,.873,3.927,2.628,5.003,1.751,1.076,3.704,1.611,5.851,1.611,3.054,0,5.876-1.105,8.479-3.307,2.598-2.206,3.902-4.492,3.902-6.867s-.709-4.012-2.122-4.919Z" fill="#231f20"/>
  <path d="M243.419,35.733c-1.413-.903-3.138-1.358-5.172-1.358-3.168,0-6.218,.962-9.158,2.885-2.94,1.924-4.408,4.239-4.408,6.952,0,2.261,.873,3.927,2.628,5.003,1.751,1.076,3.704,1.611,5.851,1.611,3.054,0,5.876-1.105,8.479-3.307,2.598-2.206,3.902-4.492,3.902-6.867s-.709-4.012-2.122-4.919Z" fill="#231f20"/>
  <path d="M302.855,93.051c-2.826,5.425-6.361,10.343-10.601,14.751-4.239,4.408-8.761,7.943-13.566,10.596-4.805,2.658-9.58,3.986-14.329,3.986-3.164,0-5.652-.565-7.458-1.696-1.81-1.126-3.113-2.485-3.902-4.071-.793-1.582-1.274-3.079-1.443-4.492-.169-1.413-.253-2.4-.253-2.965,0-1.13,.025-1.953,.084-2.459,.055-.51,.139-.991,.253-1.443,5.087-.565,10.149-1.78,15.177-3.645,5.028-1.869,9.639-4.269,13.823-7.209,4.18-2.936,7.517-6.273,10.001-10.006,2.489-3.729,3.733-7.741,3.733-12.039,0-4.518-1.329-7.547-3.986-9.073-2.658-1.523-5.454-2.286-8.394-2.286-5.201,0-10.402,1.527-15.599,4.577-5.201,3.054-9.951,7.036-14.245,11.955-4.298,4.918-7.715,10.174-10.259,15.772-1.86,4.092-3.041,8.019-3.535,11.777-.004,.004-.008,.004-.004,.008-2.392,3.472-4.746,6.176-7.057,8.137-4.522,3.847-8.706,5.766-12.549,5.766-2.489,0-4.383-.595-5.682-1.78-1.299-1.185-1.949-3.586-1.949-7.205,0-3.733,.873-7.66,2.628-11.786,1.751-4.125,3.788-8.112,6.104-11.955,2.316-3.843,4.353-7.234,6.108-10.174,1.751-2.94,2.628-5.146,2.628-6.614,0-1.582-.51-2.801-1.527-3.649-1.017-.848-2.206-1.27-3.56-1.27-2.489,0-4.978,1.215-7.462,3.645-2.489,2.434-4.805,5.572-6.952,9.411-2.151,3.847-4.045,7.943-5.682,12.296-1.265,3.358-2.312,6.597-3.134,9.719-.304,.485-.616,.974-.936,1.472-1.864,2.881-3.898,5.653-6.104,8.31-2.202,2.658-4.438,4.834-6.699,6.53-2.261,1.696-4.353,2.544-6.273,2.544-2.033,0-3.645-1.021-4.834-3.054-1.185-2.033-2.063-4.547-2.628-7.546-.565-2.995-.991-5.906-1.27-8.732-.283-2.826-.595-5.028-.932-6.614,3.729-4.18,7.374-7.943,10.934-11.275,3.564-3.337,6.728-5.994,9.5-7.972,2.767-1.974,4.889-2.965,6.357-2.965-.565-1.582-1.468-2.712-2.712-3.392-1.244-.679-2.206-1.017-2.881-1.017-1.586,0-4.467,1.721-8.652,5.172-4.18,3.446-8.816,7.715-13.903,12.802-1.244-4.408-3.024-7.913-5.34-10.516-2.32-2.598-5.741-3.898-10.259-3.898-3.961,0-7.239,.932-9.837,2.797-2.603,1.865-4.775,4.269-6.53,7.209s-3.337,6.019-4.746,9.238c-1.417,3.223-4.214,9.533-4.214,9.533-4.151,8.365-7.648,11.866-11.301,14.971-4.522,3.847-8.706,5.766-12.549,5.766-2.489,0-4.383-.595-5.682-1.78-1.299-1.185-1.949-3.586-1.949-7.205,0-3.733,.873-7.66,2.628-11.786,1.751-4.125,3.788-8.112,6.104-11.955s4.353-7.234,6.108-10.174c1.751-2.94,2.628-5.146,2.628-6.614,0-1.582-.51-2.801-1.527-3.649-1.017-.848-2.206-1.27-3.56-1.27-2.489,0-4.978,1.215-7.462,3.645-2.489,2.434-4.809,5.572-6.952,9.411-2.151,3.847-4.045,7.943-5.682,12.296-1.641,4.353-2.911,8.508-3.813,12.465-.907,3.957-1.358,7.234-1.358,9.833,0,4.184,1.244,7.745,3.729,10.685,2.489,2.936,6.218,4.408,11.195,4.408,7.007,0,13.566-2.771,19.67-8.31,4.56-4.138,8.521-9.512,11.883-16.114,.211-.409,.439-.81,.688-1.194,1.135-1.746,4.564-7.074,6.247-10.162,2.037-3.733,4.125-6.867,6.277-9.411,2.147-2.544,4.463-3.818,6.952-3.818s4.18,1.472,5.087,4.408c.903,2.944,1.751,7.184,2.544,12.718-4.408,4.75-8.538,9.386-12.381,13.908s-6.952,8.508-9.327,11.955c-2.371,3.446-3.56,5.96-3.56,7.546,0,.679,.257,1.413,.764,2.202,.51,.793,1.274,1.19,2.291,1.19,1.126,0,2.088-.51,2.881-1.527,1.924-2.489,4.72-5.965,8.394-10.428,3.674-4.467,7.77-9.242,12.296-14.329,.561,3.391,1.379,6.669,2.459,9.833,1.071,3.168,2.628,5.796,4.661,7.888,2.033,2.088,4.805,3.134,8.31,3.134,4.294,0,8.479-1.523,12.549-4.577,3.906-2.932,7.475-6.644,10.706-11.14-.017,.392-.025,.768-.025,1.135,0,4.184,1.244,7.745,3.729,10.685,2.485,2.936,6.218,4.408,11.195,4.408,7.007,0,13.562-2.771,19.67-8.31,1.962-1.78,3.809-3.788,5.551-6.024,.675,4.214,2.527,7.833,5.551,10.858,3.902,3.898,9.47,5.851,16.704,5.851,6.104,0,12.064-1.417,17.89-4.239,5.821-2.826,11.132-6.783,15.941-11.87,4.805-5.087,8.732-11.022,11.786-17.805l-3.392-2.712Zm-44.258-4.75c2.143-3.615,4.577-6.922,7.289-9.921,2.712-2.991,5.484-5.425,8.31-7.289,2.826-1.869,5.539-2.801,8.141-2.801,1.017,0,1.751,.228,2.202,.679,.451,.456,.679,1.303,.679,2.544,0,3.168-1.076,6.302-3.223,9.411-2.147,3.113-4.889,5.965-8.221,8.563-3.337,2.603-6.812,4.75-10.432,6.445s-6.897,2.712-9.833,3.054c1.24-3.505,2.936-7.066,5.087-10.685Z" fill="#231f20"/>
  <path d="M454.704,23.61c-2.995-7.179-7.829-12.891-14.498-17.13-6.673-4.239-15.544-6.357-26.621-6.357-7.913,0-15.262,1.046-22.045,3.138s-12.748,4.859-17.89,8.306c-5.146,3.451-9.158,7.209-12.043,11.28-2.881,4.071-4.324,8.082-4.324,12.039,0,3.054,1.046,5.623,3.138,7.715,2.092,2.092,5.568,3.138,10.428,3.138-.565-1.358-.962-2.742-1.185-4.155-.228-1.413-.337-2.742-.337-3.986,0-5.876,1.666-11.107,4.999-15.683,3.337-4.581,7.943-8.196,13.823-10.854,5.876-2.653,12.49-3.986,19.838-3.986,7.007,0,13.228,1.333,18.653,3.986,5.429,2.658,9.694,6.842,12.802,12.549s4.665,13.14,4.665,22.298c0,7.12-1.135,14.582-3.391,22.382-2.265,7.804-5.488,15.405-9.668,22.808-4.18,7.407-9.069,14.076-14.667,20.011-5.598,5.935-11.731,10.681-18.4,14.245-6.669,3.56-13.68,5.34-21.028,5.34-1.468,0-3.024-.084-4.661-.253-1.641-.173-2.911-.426-3.813-.764,1.692-8.027,3.868-16.873,6.526-26.541,2.658-9.664,5.598-19.611,8.82-29.844,3.219-10.229,6.61-20.18,10.174-29.844,3.56-9.664,7.091-18.455,10.596-26.368-2.375-1.582-4.522-2.375-6.446-2.375s-3.704,.654-5.34,1.949c-1.641,1.303-3.079,2.915-4.324,4.834-1.244,1.924-2.261,3.788-3.054,5.598-.789,1.81-1.354,3.164-1.692,4.071-.793,2.147-2.012,5.623-3.649,10.428-1.641,4.805-3.505,10.402-5.593,16.789-2.096,6.387-4.214,13.085-6.361,20.092-2.147,7.011-4.185,13.823-6.104,20.433-1.924,6.614-3.535,12.524-4.834,17.721-1.299,5.201-2.118,9.158-2.459,11.87,2.598,3.505,5.682,5.792,9.242,6.867,3.56,1.076,7.319,1.611,11.28,1.611,8.247,0,16.417-1.523,24.5-4.577,8.082-3.054,15.713-7.348,22.893-12.887,7.179-5.539,13.511-12.039,18.995-19.501,5.48-7.462,9.778-15.629,12.887-24.504s4.661-18.172,4.661-27.895c0-8.816-1.497-16.814-4.492-23.994Z" fill="#231f20"/>
  <path d="M646.263,92.494c-4.403,8.82-9.57,15.802-15.499,20.944-5.929,5.146-11.719,7.715-17.365,7.715-3.16,0-5.478-.958-6.944-2.881-1.466-1.924-2.2-5.201-2.2-9.837,0-5.539,.872-11.221,2.625-17.042,1.749-5.821,3.809-11.503,6.182-17.042h2.911c4.659-.112,9.541-.335,14.647-.667,5.102-.331,10.709-.774,16.812-1.333v-5.491c-4.104,.443-8.129,.75-12.067,.915-3.942,.166-8.352,.248-13.235,.248h-5.85c3.169-6.327,6.453-12.292,9.85-17.89,3.398-5.598,6.258-10.482,8.578-14.667,2.32-4.18,3.486-7.403,3.486-9.668,0-1.582-.511-2.797-1.53-3.645-1.023-.848-2.1-1.27-3.229-1.27-1.927,0-4.137,1.27-6.626,3.813-2.493,2.544-5.126,6.019-7.898,10.428-2.776,4.412-5.553,9.411-8.325,15.009-2.776,5.598-5.35,11.389-7.729,17.383-1.247-.114-2.464-.228-3.651-.342-1.192-.11-2.692-.278-4.505-.506v5.256c1.023,.451,2.066,.764,3.144,.932,1.073,.169,2.011,.367,2.802,.595-2.717,7.348-4.953,14.469-6.711,21.366-.49,1.928-.909,3.763-1.259,5.513-1.661,2.303-3.364,4.222-5.109,5.762-3.398,2.995-10.362,5.851-10.362,5.851,0,0,.393-2.092,.507-3.223,.114-1.126,.173-2.375,.173-3.729,0-5.087-.824-10.061-2.464-14.924-1.644-4.859-3.288-9.466-4.927-13.819-1.644-4.349-2.464-8.226-2.464-11.617,0-1.582,.139-2.822,.427-3.729,.279-.903,.423-1.696,.423-2.375-.114-.903-.482-1.696-1.103-2.375-.625-.679-1.614-1.017-2.975-1.017-2.037,0-3.82,.932-5.35,2.797-1.53,1.864-2.295,5.062-2.295,9.584v1.578c-2.145,4.746-4.715,9.069-7.707,12.971-2.992,3.898-5.904,7.319-8.723,10.259-.535,.532-1.344,1.017-2.427,1.447l-1.702,.738c-.742,.358-1.509,.789-2.309,1.291-1.353,.848-2.482,2.177-3.388,3.986-.733,1.472-1.171,3.434-1.306,5.88-.514,.658-1.037,1.299-1.572,1.919-3.502,4.071-6.89,7.179-10.164,9.327-3.278,2.147-6.097,3.223-8.47,3.223-1.808,0-3.021-.595-3.641-1.78-.624-1.189-.931-2.573-.931-4.155,0-2.712,.531-5.851,1.61-9.411,1.07-3.564,2.309-7.04,3.725-10.432,1.412-3.392,2.651-6.298,3.725-8.732,1.075-2.43,1.61-3.813,1.61-4.155,0-1.354-.619-2.4-1.863-3.138-1.243-.734-2.684-1.324-4.319-1.78-1.639-.447-2.967-.734-3.982-.848-1.129,2.489-2.57,5.543-4.319,9.158-1.753,3.619-3.725,7.353-5.929,11.191-2.2,3.847-4.462,7.437-6.776,10.769-2.318,3.337-4.572,6.049-6.776,8.141-2.2,2.092-4.264,3.134-6.182,3.134-1.694,0-2.882-.734-3.556-2.202-.678-1.468-1.104-3.054-1.273-4.75s-.253-2.767-.253-3.223c0-3.501,.678-7.403,2.031-11.697,1.357-4.298,2.908-8.31,4.661-12.043,1.749-3.729,3.245-6.496,4.488-8.306-1.243-1.244-2.684-2.291-4.319-3.138-1.639-.848-2.853-1.274-3.641-1.274-1.471,0-3.08,1.358-4.829,4.071-1.753,2.712-3.447,6.104-5.082,10.174-1.639,4.071-2.967,8.255-3.982,12.549-1.016,4.298-1.525,8.027-1.525,11.191,0,4.636,1.214,8.732,3.645,12.296,2.427,3.56,5.558,5.34,9.401,5.34,2.819,0,5.503-.962,8.044-2.881,2.541-1.924,4.939-4.328,7.201-7.209,2.259-2.881,4.344-5.851,6.266-8.901v3.392c.114,2.485,.451,4.944,1.016,7.374,.565,2.434,1.669,4.408,3.304,5.935,1.635,1.527,4.092,2.291,7.37,2.291,4.29,0,8.693-1.388,13.215-4.155,4.391-2.691,8.52-6.382,12.385-11.056,.35,2.189,.965,4.349,1.841,6.479,1.466,3.56,3.923,6.496,7.37,8.816,3.443,2.316,7.989,3.476,13.636,3.476,5.191,0,9.852-1.13,13.973-3.392,4.125-2.261,7.088-5.707,8.895-10.343,5.419-.903,10.164-3.307,14.23-7.209,.531-.506,1.041-1.038,1.534-1.586-.122,1.371-.181,2.662-.181,3.877,0,5.994,1.525,10.457,4.576,13.397,3.047,2.94,7.054,4.408,12.026,4.408,5.419,0,10.674-1.557,15.756-4.661,5.078-3.113,9.793-7.378,14.142-12.802,4.349-5.429,7.989-11.474,10.927-18.147l-2.372-1.696Zm-88.372,29.176c-1.924,1.13-4.016,1.696-6.273,1.696-4.185,0-7.352-1.637-9.5-4.914-2.147-3.278-3.219-6.783-3.219-10.516,0-2.712,.789-4.239,2.371-4.577,2.037,2.712,4.918,5.37,8.652,7.968,3.729,2.603,7.909,4.408,12.545,5.429-1.13,2.147-2.658,3.788-4.577,4.914Zm6.357-12.802c-.055,1.076-.198,2.008-.422,2.801-4.522-1.131-8.538-3.054-12.039-5.766-3.505-2.712-6.163-5.598-7.973-8.647,2.375-2.489,4.919-5.766,7.631-9.837,2.717-4.071,5.087-7.854,7.125-11.36,1.24,5.201,2.485,10.288,3.729,15.262,1.244,4.973,1.924,10.001,2.037,15.089,0,.57-.03,1.388-.089,2.459Z" fill="#231f20"/>
</svg>